<mxfile host="app.diagrams.net" modified="2023-06-09T14:53:54.335Z" agent="5.0 (Windows NT 10.0; Win64; x64) AppleWebKit/537.36 (KHTML, like Gecko) Chrome/114.0.0.0 Safari/537.36" etag="k_XkixJmt7UgciR7xVA2" version="21.0.6" type="github">
  <diagram name="Sayfa -1" id="IZf4YPTOtMmeYFm4Y4rr">
    <mxGraphModel dx="1674" dy="796" grid="1" gridSize="10" guides="1" tooltips="1" connect="1" arrows="1" fold="1" page="1" pageScale="1" pageWidth="827" pageHeight="1169" math="0" shadow="0">
      <root>
        <mxCell id="0" />
        <mxCell id="1" parent="0" />
        <mxCell id="3kdU1OcoeH2gAvUZiHrY-1" value="Üniversite" style="swimlane;fontStyle=2;align=center;verticalAlign=top;childLayout=stackLayout;horizontal=1;startSize=26;horizontalStack=0;resizeParent=1;resizeLast=0;collapsible=1;marginBottom=0;rounded=0;shadow=0;strokeWidth=1;" vertex="1" parent="1">
          <mxGeometry x="430" y="140" width="160" height="138" as="geometry">
            <mxRectangle x="230" y="140" width="160" height="26" as="alternateBounds" />
          </mxGeometry>
        </mxCell>
        <mxCell id="3kdU1OcoeH2gAvUZiHrY-2" value="Name" style="text;align=left;verticalAlign=top;spacingLeft=4;spacingRight=4;overflow=hidden;rotatable=0;points=[[0,0.5],[1,0.5]];portConstraint=eastwest;" vertex="1" parent="3kdU1OcoeH2gAvUZiHrY-1">
          <mxGeometry y="26" width="160" height="22" as="geometry" />
        </mxCell>
        <mxCell id="3kdU1OcoeH2gAvUZiHrY-3" style="edgeStyle=orthogonalEdgeStyle;rounded=0;orthogonalLoop=1;jettySize=auto;html=1;" edge="1" parent="3kdU1OcoeH2gAvUZiHrY-1">
          <mxGeometry relative="1" as="geometry">
            <mxPoint x="-100" y="61" as="targetPoint" />
            <mxPoint y="61" as="sourcePoint" />
          </mxGeometry>
        </mxCell>
        <mxCell id="3kdU1OcoeH2gAvUZiHrY-4" value="" style="line;html=1;strokeWidth=1;align=left;verticalAlign=middle;spacingTop=-1;spacingLeft=3;spacingRight=3;rotatable=0;labelPosition=right;points=[];portConstraint=eastwest;" vertex="1" parent="3kdU1OcoeH2gAvUZiHrY-1">
          <mxGeometry y="48" width="160" height="8" as="geometry" />
        </mxCell>
        <mxCell id="3kdU1OcoeH2gAvUZiHrY-5" value="Departmanlar" style="swimlane;fontStyle=0;align=center;verticalAlign=top;childLayout=stackLayout;horizontal=1;startSize=26;horizontalStack=0;resizeParent=1;resizeLast=0;collapsible=1;marginBottom=0;rounded=0;shadow=0;strokeWidth=1;" vertex="1" parent="1">
          <mxGeometry x="160" y="340" width="160" height="138" as="geometry">
            <mxRectangle x="130" y="380" width="160" height="26" as="alternateBounds" />
          </mxGeometry>
        </mxCell>
        <mxCell id="3kdU1OcoeH2gAvUZiHrY-6" value="name" style="text;align=left;verticalAlign=top;spacingLeft=4;spacingRight=4;overflow=hidden;rotatable=0;points=[[0,0.5],[1,0.5]];portConstraint=eastwest;" vertex="1" parent="3kdU1OcoeH2gAvUZiHrY-5">
          <mxGeometry y="26" width="160" height="26" as="geometry" />
        </mxCell>
        <mxCell id="3kdU1OcoeH2gAvUZiHrY-7" value="" style="line;html=1;strokeWidth=1;align=left;verticalAlign=middle;spacingTop=-1;spacingLeft=3;spacingRight=3;rotatable=0;labelPosition=right;points=[];portConstraint=eastwest;" vertex="1" parent="3kdU1OcoeH2gAvUZiHrY-5">
          <mxGeometry y="52" width="160" height="8" as="geometry" />
        </mxCell>
        <mxCell id="3kdU1OcoeH2gAvUZiHrY-8" value="employee" style="text;align=left;verticalAlign=top;spacingLeft=4;spacingRight=4;overflow=hidden;rotatable=0;points=[[0,0.5],[1,0.5]];portConstraint=eastwest;" vertex="1" parent="3kdU1OcoeH2gAvUZiHrY-5">
          <mxGeometry y="60" width="160" height="26" as="geometry" />
        </mxCell>
        <mxCell id="3kdU1OcoeH2gAvUZiHrY-9" value="" style="endArrow=block;endSize=10;endFill=0;shadow=0;strokeWidth=1;rounded=0;edgeStyle=elbowEdgeStyle;elbow=vertical;" edge="1" parent="1" source="3kdU1OcoeH2gAvUZiHrY-5" target="3kdU1OcoeH2gAvUZiHrY-1">
          <mxGeometry width="160" relative="1" as="geometry">
            <mxPoint x="410" y="303" as="sourcePoint" />
            <mxPoint x="410" y="303" as="targetPoint" />
          </mxGeometry>
        </mxCell>
        <mxCell id="3kdU1OcoeH2gAvUZiHrY-10" value="Çalışma ofisler" style="swimlane;fontStyle=0;align=center;verticalAlign=top;childLayout=stackLayout;horizontal=1;startSize=26;horizontalStack=0;resizeParent=1;resizeLast=0;collapsible=1;marginBottom=0;rounded=0;shadow=0;strokeWidth=1;" vertex="1" parent="1">
          <mxGeometry x="370" y="420" width="160" height="86" as="geometry">
            <mxRectangle x="340" y="380" width="170" height="26" as="alternateBounds" />
          </mxGeometry>
        </mxCell>
        <mxCell id="3kdU1OcoeH2gAvUZiHrY-11" value="name" style="text;align=left;verticalAlign=top;spacingLeft=4;spacingRight=4;overflow=hidden;rotatable=0;points=[[0,0.5],[1,0.5]];portConstraint=eastwest;" vertex="1" parent="3kdU1OcoeH2gAvUZiHrY-10">
          <mxGeometry y="26" width="160" height="26" as="geometry" />
        </mxCell>
        <mxCell id="3kdU1OcoeH2gAvUZiHrY-12" value="" style="line;html=1;strokeWidth=1;align=left;verticalAlign=middle;spacingTop=-1;spacingLeft=3;spacingRight=3;rotatable=0;labelPosition=right;points=[];portConstraint=eastwest;" vertex="1" parent="3kdU1OcoeH2gAvUZiHrY-10">
          <mxGeometry y="52" width="160" height="8" as="geometry" />
        </mxCell>
        <mxCell id="3kdU1OcoeH2gAvUZiHrY-13" value="" style="endArrow=block;endSize=10;endFill=0;shadow=0;strokeWidth=1;rounded=0;edgeStyle=elbowEdgeStyle;elbow=vertical;" edge="1" parent="1" source="3kdU1OcoeH2gAvUZiHrY-10" target="3kdU1OcoeH2gAvUZiHrY-1">
          <mxGeometry width="160" relative="1" as="geometry">
            <mxPoint x="420" y="473" as="sourcePoint" />
            <mxPoint x="520" y="371" as="targetPoint" />
          </mxGeometry>
        </mxCell>
        <mxCell id="3kdU1OcoeH2gAvUZiHrY-14" value="sınıflık" style="swimlane;fontStyle=0;align=center;verticalAlign=top;childLayout=stackLayout;horizontal=1;startSize=26;horizontalStack=0;resizeParent=1;resizeLast=0;collapsible=1;marginBottom=0;rounded=0;shadow=0;strokeWidth=1;" vertex="1" parent="1">
          <mxGeometry x="750" y="120" width="160" height="216" as="geometry">
            <mxRectangle x="550" y="140" width="160" height="26" as="alternateBounds" />
          </mxGeometry>
        </mxCell>
        <mxCell id="3kdU1OcoeH2gAvUZiHrY-15" value="name" style="text;align=left;verticalAlign=top;spacingLeft=4;spacingRight=4;overflow=hidden;rotatable=0;points=[[0,0.5],[1,0.5]];portConstraint=eastwest;rounded=0;shadow=0;html=0;" vertex="1" parent="3kdU1OcoeH2gAvUZiHrY-14">
          <mxGeometry y="26" width="160" height="26" as="geometry" />
        </mxCell>
        <mxCell id="3kdU1OcoeH2gAvUZiHrY-16" value="Postal Code" style="text;align=left;verticalAlign=top;spacingLeft=4;spacingRight=4;overflow=hidden;rotatable=0;points=[[0,0.5],[1,0.5]];portConstraint=eastwest;rounded=0;shadow=0;html=0;" vertex="1" parent="3kdU1OcoeH2gAvUZiHrY-14">
          <mxGeometry y="52" width="160" height="26" as="geometry" />
        </mxCell>
        <mxCell id="3kdU1OcoeH2gAvUZiHrY-17" value="Country" style="text;align=left;verticalAlign=top;spacingLeft=4;spacingRight=4;overflow=hidden;rotatable=0;points=[[0,0.5],[1,0.5]];portConstraint=eastwest;rounded=0;shadow=0;html=0;" vertex="1" parent="3kdU1OcoeH2gAvUZiHrY-14">
          <mxGeometry y="78" width="160" height="26" as="geometry" />
        </mxCell>
        <mxCell id="3kdU1OcoeH2gAvUZiHrY-18" value="" style="line;html=1;strokeWidth=1;align=left;verticalAlign=middle;spacingTop=-1;spacingLeft=3;spacingRight=3;rotatable=0;labelPosition=right;points=[];portConstraint=eastwest;" vertex="1" parent="3kdU1OcoeH2gAvUZiHrY-14">
          <mxGeometry y="104" width="160" height="8" as="geometry" />
        </mxCell>
        <mxCell id="3kdU1OcoeH2gAvUZiHrY-19" value="Validate" style="text;align=left;verticalAlign=top;spacingLeft=4;spacingRight=4;overflow=hidden;rotatable=0;points=[[0,0.5],[1,0.5]];portConstraint=eastwest;" vertex="1" parent="3kdU1OcoeH2gAvUZiHrY-14">
          <mxGeometry y="112" width="160" height="26" as="geometry" />
        </mxCell>
        <mxCell id="3kdU1OcoeH2gAvUZiHrY-20" value="Output As Label" style="text;align=left;verticalAlign=top;spacingLeft=4;spacingRight=4;overflow=hidden;rotatable=0;points=[[0,0.5],[1,0.5]];portConstraint=eastwest;" vertex="1" parent="3kdU1OcoeH2gAvUZiHrY-14">
          <mxGeometry y="138" width="160" height="26" as="geometry" />
        </mxCell>
        <mxCell id="3kdU1OcoeH2gAvUZiHrY-21" value="" style="endArrow=open;shadow=0;strokeWidth=1;rounded=0;endFill=1;edgeStyle=elbowEdgeStyle;elbow=vertical;" edge="1" parent="1" source="3kdU1OcoeH2gAvUZiHrY-1" target="3kdU1OcoeH2gAvUZiHrY-14">
          <mxGeometry x="0.5" y="41" relative="1" as="geometry">
            <mxPoint x="590" y="292" as="sourcePoint" />
            <mxPoint x="750" y="292" as="targetPoint" />
            <mxPoint x="-40" y="32" as="offset" />
          </mxGeometry>
        </mxCell>
        <mxCell id="3kdU1OcoeH2gAvUZiHrY-22" value="1" style="resizable=0;align=left;verticalAlign=bottom;labelBackgroundColor=none;fontSize=12;" connectable="0" vertex="1" parent="3kdU1OcoeH2gAvUZiHrY-21">
          <mxGeometry x="-1" relative="1" as="geometry">
            <mxPoint y="4" as="offset" />
          </mxGeometry>
        </mxCell>
        <mxCell id="3kdU1OcoeH2gAvUZiHrY-23" value="*" style="resizable=0;align=right;verticalAlign=bottom;labelBackgroundColor=none;fontSize=12;" connectable="0" vertex="1" parent="3kdU1OcoeH2gAvUZiHrY-21">
          <mxGeometry x="1" relative="1" as="geometry">
            <mxPoint x="-7" y="4" as="offset" />
          </mxGeometry>
        </mxCell>
        <mxCell id="3kdU1OcoeH2gAvUZiHrY-24" value="1" style="resizable=0;align=left;verticalAlign=bottom;labelBackgroundColor=none;fontSize=12;" connectable="0" vertex="1" parent="3kdU1OcoeH2gAvUZiHrY-21">
          <mxGeometry x="-1" relative="1" as="geometry">
            <mxPoint x="-170" y="-9" as="offset" />
          </mxGeometry>
        </mxCell>
        <mxCell id="3kdU1OcoeH2gAvUZiHrY-25" value="*" style="resizable=0;align=left;verticalAlign=bottom;labelBackgroundColor=none;fontSize=12;" connectable="0" vertex="1" parent="3kdU1OcoeH2gAvUZiHrY-21">
          <mxGeometry x="-1" relative="1" as="geometry">
            <mxPoint x="10" y="251" as="offset" />
          </mxGeometry>
        </mxCell>
        <mxCell id="3kdU1OcoeH2gAvUZiHrY-26" value="*" style="resizable=0;align=left;verticalAlign=bottom;labelBackgroundColor=none;fontSize=12;" connectable="0" vertex="1" parent="3kdU1OcoeH2gAvUZiHrY-21">
          <mxGeometry x="-1" relative="1" as="geometry">
            <mxPoint x="34" y="211" as="offset" />
          </mxGeometry>
        </mxCell>
        <mxCell id="3kdU1OcoeH2gAvUZiHrY-27" value="*" style="resizable=0;align=left;verticalAlign=bottom;labelBackgroundColor=none;fontSize=12;" connectable="0" vertex="1" parent="3kdU1OcoeH2gAvUZiHrY-21">
          <mxGeometry x="-1" relative="1" as="geometry">
            <mxPoint x="-360" y="131" as="offset" />
          </mxGeometry>
        </mxCell>
        <mxCell id="3kdU1OcoeH2gAvUZiHrY-28" value="*" style="resizable=0;align=left;verticalAlign=bottom;labelBackgroundColor=none;fontSize=12;" connectable="0" vertex="1" parent="3kdU1OcoeH2gAvUZiHrY-21">
          <mxGeometry x="-1" relative="1" as="geometry">
            <mxPoint x="-150" y="211" as="offset" />
          </mxGeometry>
        </mxCell>
        <mxCell id="3kdU1OcoeH2gAvUZiHrY-29" value="1" style="resizable=0;align=left;verticalAlign=bottom;labelBackgroundColor=none;fontSize=12;" connectable="0" vertex="1" parent="3kdU1OcoeH2gAvUZiHrY-21">
          <mxGeometry x="-1" relative="1" as="geometry">
            <mxPoint x="-90" y="91" as="offset" />
          </mxGeometry>
        </mxCell>
        <mxCell id="3kdU1OcoeH2gAvUZiHrY-30" value="1" style="resizable=0;align=left;verticalAlign=bottom;labelBackgroundColor=none;fontSize=12;" connectable="0" vertex="1" parent="1">
          <mxGeometry x="690" y="390" as="geometry">
            <mxPoint x="-5" y="8" as="offset" />
          </mxGeometry>
        </mxCell>
        <mxCell id="3kdU1OcoeH2gAvUZiHrY-31" value="professor" style="swimlane;fontStyle=2;align=center;verticalAlign=top;childLayout=stackLayout;horizontal=1;startSize=26;horizontalStack=0;resizeParent=1;resizeLast=0;collapsible=1;marginBottom=0;rounded=0;shadow=0;strokeWidth=1;" vertex="1" parent="1">
          <mxGeometry x="170" y="130" width="160" height="138" as="geometry">
            <mxRectangle x="230" y="140" width="160" height="26" as="alternateBounds" />
          </mxGeometry>
        </mxCell>
        <mxCell id="3kdU1OcoeH2gAvUZiHrY-32" value="Name" style="text;align=left;verticalAlign=top;spacingLeft=4;spacingRight=4;overflow=hidden;rotatable=0;points=[[0,0.5],[1,0.5]];portConstraint=eastwest;" vertex="1" parent="3kdU1OcoeH2gAvUZiHrY-31">
          <mxGeometry y="26" width="160" height="22" as="geometry" />
        </mxCell>
        <mxCell id="3kdU1OcoeH2gAvUZiHrY-33" value="" style="line;html=1;strokeWidth=1;align=left;verticalAlign=middle;spacingTop=-1;spacingLeft=3;spacingRight=3;rotatable=0;labelPosition=right;points=[];portConstraint=eastwest;" vertex="1" parent="3kdU1OcoeH2gAvUZiHrY-31">
          <mxGeometry y="48" width="160" height="8" as="geometry" />
        </mxCell>
        <mxCell id="3kdU1OcoeH2gAvUZiHrY-34" value="class" style="text;align=left;verticalAlign=top;spacingLeft=4;spacingRight=4;overflow=hidden;rotatable=0;points=[[0,0.5],[1,0.5]];portConstraint=eastwest;" vertex="1" parent="3kdU1OcoeH2gAvUZiHrY-31">
          <mxGeometry y="56" width="160" height="22" as="geometry" />
        </mxCell>
        <mxCell id="3kdU1OcoeH2gAvUZiHrY-35" style="edgeStyle=orthogonalEdgeStyle;rounded=0;orthogonalLoop=1;jettySize=auto;html=1;entryX=1;entryY=1;entryDx=0;entryDy=0;" edge="1" parent="1" source="3kdU1OcoeH2gAvUZiHrY-36" target="3kdU1OcoeH2gAvUZiHrY-1">
          <mxGeometry relative="1" as="geometry">
            <Array as="points">
              <mxPoint x="690" y="290" />
              <mxPoint x="590" y="290" />
            </Array>
          </mxGeometry>
        </mxCell>
        <mxCell id="3kdU1OcoeH2gAvUZiHrY-36" value="employee" style="swimlane;fontStyle=2;align=center;verticalAlign=top;childLayout=stackLayout;horizontal=1;startSize=26;horizontalStack=0;resizeParent=1;resizeLast=0;collapsible=1;marginBottom=0;rounded=0;shadow=0;strokeWidth=1;" vertex="1" parent="1">
          <mxGeometry x="610" y="400" width="160" height="138" as="geometry">
            <mxRectangle x="230" y="140" width="160" height="26" as="alternateBounds" />
          </mxGeometry>
        </mxCell>
        <mxCell id="3kdU1OcoeH2gAvUZiHrY-37" value="Name" style="text;align=left;verticalAlign=top;spacingLeft=4;spacingRight=4;overflow=hidden;rotatable=0;points=[[0,0.5],[1,0.5]];portConstraint=eastwest;" vertex="1" parent="3kdU1OcoeH2gAvUZiHrY-36">
          <mxGeometry y="26" width="160" height="22" as="geometry" />
        </mxCell>
        <mxCell id="3kdU1OcoeH2gAvUZiHrY-38" style="edgeStyle=orthogonalEdgeStyle;rounded=0;orthogonalLoop=1;jettySize=auto;html=1;entryX=1;entryY=0.5;entryDx=0;entryDy=0;" edge="1" parent="3kdU1OcoeH2gAvUZiHrY-36" target="3kdU1OcoeH2gAvUZiHrY-11">
          <mxGeometry relative="1" as="geometry">
            <mxPoint x="-60" y="61" as="targetPoint" />
            <mxPoint y="61" as="sourcePoint" />
            <Array as="points">
              <mxPoint x="-30" y="61" />
              <mxPoint x="-30" y="59" />
            </Array>
          </mxGeometry>
        </mxCell>
        <mxCell id="3kdU1OcoeH2gAvUZiHrY-39" value="" style="line;html=1;strokeWidth=1;align=left;verticalAlign=middle;spacingTop=-1;spacingLeft=3;spacingRight=3;rotatable=0;labelPosition=right;points=[];portConstraint=eastwest;" vertex="1" parent="3kdU1OcoeH2gAvUZiHrY-36">
          <mxGeometry y="48" width="160" height="8" as="geometry" />
        </mxCell>
        <mxCell id="3kdU1OcoeH2gAvUZiHrY-40" value="1" style="resizable=0;align=left;verticalAlign=bottom;labelBackgroundColor=none;fontSize=12;" connectable="0" vertex="1" parent="1">
          <mxGeometry x="590" y="263" as="geometry">
            <mxPoint x="-17" y="35" as="offset" />
          </mxGeometry>
        </mxCell>
        <mxCell id="3kdU1OcoeH2gAvUZiHrY-41" value="*" style="resizable=0;align=left;verticalAlign=bottom;labelBackgroundColor=none;fontSize=12;" connectable="0" vertex="1" parent="1">
          <mxGeometry x="720" y="370" as="geometry">
            <mxPoint x="-17" y="35" as="offset" />
          </mxGeometry>
        </mxCell>
        <mxCell id="3kdU1OcoeH2gAvUZiHrY-42" value="1" style="resizable=0;align=left;verticalAlign=bottom;labelBackgroundColor=none;fontSize=12;" connectable="0" vertex="1" parent="1">
          <mxGeometry x="550" y="420" as="geometry">
            <mxPoint x="-17" y="35" as="offset" />
          </mxGeometry>
        </mxCell>
      </root>
    </mxGraphModel>
  </diagram>
</mxfile>
